<?xml version="1.0" standalone="no"?>
<!DOCTYPE svg PUBLIC "-//W3C//DTD SVG 20010904//EN"
 "http://www.w3.org/TR/2001/REC-SVG-20010904/DTD/svg10.dtd">
<svg version="1.0" xmlns="http://www.w3.org/2000/svg"
 width="260.000000pt" height="260.000000pt" viewBox="0 0 260.000000 260.000000"
 preserveAspectRatio="xMidYMid meet">
<metadata>
Created by potrace 1.11, written by Peter Selinger 2001-2013
</metadata>
<g transform="translate(0.000000,260.000000) scale(0.100000,-0.100000)"
fill="#000000" stroke="none">
<path d="M390 2320 c0 -5 -6 -7 -13 -4 -15 5 -74 -47 -95 -84 -10 -18 -13
-108 -13 -390 0 -202 0 -371 1 -377 2 -5 1 -14 0 -20 -2 -13 -2 -207 0 -220 1
-5 1 -14 0 -20 -1 -5 -2 -192 -2 -414 1 -320 4 -406 14 -412 10 -7 10 -9 0 -9
-7 0 -4 -8 8 -20 11 -11 20 -25 20 -31 0 -5 5 -7 10 -4 6 3 10 -1 10 -9 0 -8
10 -16 23 -18 12 -2 21 -8 20 -13 -1 -6 85 -9 233 -8 136 1 232 -2 229 -7 -3
-5 -1 -12 5 -15 6 -4 9 -1 8 7 -2 9 10 14 36 16 34 3 38 1 32 -15 -5 -16 -5
-16 7 -2 10 13 31 17 100 17 64 0 85 -3 80 -11 -5 -9 -3 -9 8 -1 16 13 212 17
204 4 -3 -5 -1 -12 5 -15 6 -4 9 -1 8 7 -2 9 10 14 36 16 34 3 38 1 32 -15 -6
-16 -5 -17 7 -1 11 14 38 16 205 17 109 0 190 -4 187 -9 -3 -5 -1 -12 5 -15 6
-4 9 -1 8 7 -2 9 10 14 36 16 34 3 38 1 32 -15 -5 -16 -5 -16 7 -2 10 13 31
17 100 17 64 0 85 -3 80 -11 -5 -9 -3 -9 8 0 8 6 34 11 59 11 61 -2 112 11
127 31 7 9 13 12 13 8 0 -4 6 -2 14 5 8 7 12 16 9 20 -2 5 1 8 6 8 6 0 11 7
11 15 0 8 5 15 10 15 6 0 9 3 9 8 -1 4 -1 12 0 17 3 16 3 1714 0 1778 -1 31
-6 57 -11 57 -4 0 -8 5 -8 11 0 16 -70 80 -80 74 -5 -3 -11 -1 -15 5 -8 14
-1825 14 -1825 0z"/>
<path d="M535 249 c-4 -6 -5 -12 -2 -15 2 -3 7 2 10 11 7 17 1 20 -8 4z"/>
<path d="M1495 249 c-4 -6 -5 -12 -2 -15 2 -3 7 2 10 11 7 17 1 20 -8 4z"/>
</g>
</svg>
